<mxfile host="Electron" modified="2024-04-09T16:03:40.554Z" agent="Mozilla/5.0 (Windows NT 10.0; Win64; x64) AppleWebKit/537.36 (KHTML, like Gecko) draw.io/22.0.3 Chrome/114.0.5735.289 Electron/25.8.4 Safari/537.36" etag="KKH33Q4y5qBIGQRxFTfS" version="22.0.3" type="device">
  <diagram name="Pagina-1" id="YzWQodzD78JNeDAUSXoz">
    <mxGraphModel dx="2328" dy="715" grid="1" gridSize="10" guides="1" tooltips="1" connect="1" arrows="1" fold="1" page="1" pageScale="1" pageWidth="827" pageHeight="1169" math="0" shadow="0">
      <root>
        <mxCell id="0" />
        <mxCell id="1" parent="0" />
        <mxCell id="w2two0Atbse1pp40csvL-10" style="edgeStyle=orthogonalEdgeStyle;rounded=0;orthogonalLoop=1;jettySize=auto;html=1;exitX=0.5;exitY=1;exitDx=0;exitDy=0;" edge="1" parent="1" source="w2two0Atbse1pp40csvL-1" target="w2two0Atbse1pp40csvL-9">
          <mxGeometry relative="1" as="geometry" />
        </mxCell>
        <mxCell id="w2two0Atbse1pp40csvL-1" value="Leggi di Mendel" style="rounded=1;whiteSpace=wrap;html=1;" vertex="1" parent="1">
          <mxGeometry x="360" y="200" width="120" height="60" as="geometry" />
        </mxCell>
        <mxCell id="w2two0Atbse1pp40csvL-5" style="edgeStyle=orthogonalEdgeStyle;rounded=0;orthogonalLoop=1;jettySize=auto;html=1;exitX=0.5;exitY=1;exitDx=0;exitDy=0;" edge="1" parent="1" source="w2two0Atbse1pp40csvL-2" target="w2two0Atbse1pp40csvL-4">
          <mxGeometry relative="1" as="geometry" />
        </mxCell>
        <mxCell id="w2two0Atbse1pp40csvL-2" value="Fenotipo = insieme tratti osservabili individuo" style="rounded=0;whiteSpace=wrap;html=1;" vertex="1" parent="1">
          <mxGeometry x="710" y="200" width="120" height="60" as="geometry" />
        </mxCell>
        <mxCell id="w2two0Atbse1pp40csvL-6" style="edgeStyle=orthogonalEdgeStyle;rounded=0;orthogonalLoop=1;jettySize=auto;html=1;exitX=0.5;exitY=1;exitDx=0;exitDy=0;" edge="1" parent="1" source="w2two0Atbse1pp40csvL-3" target="w2two0Atbse1pp40csvL-4">
          <mxGeometry relative="1" as="geometry" />
        </mxCell>
        <mxCell id="w2two0Atbse1pp40csvL-3" value="Genotipo = insieme dei geni della specie" style="rounded=0;whiteSpace=wrap;html=1;" vertex="1" parent="1">
          <mxGeometry x="890" y="200" width="120" height="60" as="geometry" />
        </mxCell>
        <mxCell id="w2two0Atbse1pp40csvL-4" value="Alleli = due o piÃ¹ forme per i geni (nucleotidi = basi azotate)&lt;br&gt;&lt;br&gt;Per ogni allele = fenotipo diverso" style="rounded=0;whiteSpace=wrap;html=1;" vertex="1" parent="1">
          <mxGeometry x="800" y="300" width="140" height="90" as="geometry" />
        </mxCell>
        <mxCell id="w2two0Atbse1pp40csvL-8" value="" style="endArrow=classic;startArrow=classic;html=1;rounded=0;exitX=1;exitY=0.5;exitDx=0;exitDy=0;entryX=0;entryY=0.5;entryDx=0;entryDy=0;" edge="1" parent="1" source="w2two0Atbse1pp40csvL-1" target="w2two0Atbse1pp40csvL-2">
          <mxGeometry width="50" height="50" relative="1" as="geometry">
            <mxPoint x="410" y="280" as="sourcePoint" />
            <mxPoint x="460" y="230" as="targetPoint" />
          </mxGeometry>
        </mxCell>
        <mxCell id="w2two0Atbse1pp40csvL-14" style="edgeStyle=orthogonalEdgeStyle;rounded=0;orthogonalLoop=1;jettySize=auto;html=1;exitX=0.5;exitY=1;exitDx=0;exitDy=0;" edge="1" parent="1" source="w2two0Atbse1pp40csvL-9" target="w2two0Atbse1pp40csvL-13">
          <mxGeometry relative="1" as="geometry" />
        </mxCell>
        <mxCell id="w2two0Atbse1pp40csvL-16" style="edgeStyle=orthogonalEdgeStyle;rounded=0;orthogonalLoop=1;jettySize=auto;html=1;exitX=0.5;exitY=1;exitDx=0;exitDy=0;" edge="1" parent="1" source="w2two0Atbse1pp40csvL-9" target="w2two0Atbse1pp40csvL-15">
          <mxGeometry relative="1" as="geometry" />
        </mxCell>
        <mxCell id="w2two0Atbse1pp40csvL-18" style="edgeStyle=orthogonalEdgeStyle;rounded=0;orthogonalLoop=1;jettySize=auto;html=1;exitX=0.5;exitY=1;exitDx=0;exitDy=0;" edge="1" parent="1" source="w2two0Atbse1pp40csvL-9" target="w2two0Atbse1pp40csvL-17">
          <mxGeometry relative="1" as="geometry" />
        </mxCell>
        <mxCell id="w2two0Atbse1pp40csvL-21" style="edgeStyle=orthogonalEdgeStyle;rounded=0;orthogonalLoop=1;jettySize=auto;html=1;exitX=0.5;exitY=1;exitDx=0;exitDy=0;" edge="1" parent="1" source="w2two0Atbse1pp40csvL-9" target="w2two0Atbse1pp40csvL-19">
          <mxGeometry relative="1" as="geometry" />
        </mxCell>
        <mxCell id="w2two0Atbse1pp40csvL-23" style="edgeStyle=orthogonalEdgeStyle;rounded=0;orthogonalLoop=1;jettySize=auto;html=1;exitX=0.5;exitY=1;exitDx=0;exitDy=0;" edge="1" parent="1" source="w2two0Atbse1pp40csvL-9" target="w2two0Atbse1pp40csvL-22">
          <mxGeometry relative="1" as="geometry" />
        </mxCell>
        <mxCell id="w2two0Atbse1pp40csvL-9" value="- Esperimenti sui piselli&lt;br&gt;- Incroci dei piselli tra tratti normali e ibridi (mischiare allelI)" style="rounded=0;whiteSpace=wrap;html=1;" vertex="1" parent="1">
          <mxGeometry x="320" y="290" width="200" height="110" as="geometry" />
        </mxCell>
        <mxCell id="w2two0Atbse1pp40csvL-13" value="Dominanza incompleta =&lt;br&gt;effetti di due alleli sul fenotipo e nessuno dei due domina (effetto misto)" style="rounded=0;whiteSpace=wrap;html=1;" vertex="1" parent="1">
          <mxGeometry x="190" y="480" width="170" height="90" as="geometry" />
        </mxCell>
        <mxCell id="w2two0Atbse1pp40csvL-15" value="Epistasi =&amp;nbsp;verifica quando un gene influenza l&#39;espressione fenotipica di un altro gene in un singolo gene" style="rounded=0;whiteSpace=wrap;html=1;" vertex="1" parent="1">
          <mxGeometry x="490" y="480" width="140" height="85" as="geometry" />
        </mxCell>
        <mxCell id="w2two0Atbse1pp40csvL-17" value="Codominanza =&amp;nbsp;entrambi gli alleli di un singolo insieme di geni vengono espressi nell&#39;eterozigote" style="rounded=0;whiteSpace=wrap;html=1;" vertex="1" parent="1">
          <mxGeometry x="710" y="480" width="140" height="95" as="geometry" />
        </mxCell>
        <mxCell id="w2two0Atbse1pp40csvL-19" value="Poliallelia = alleli multipli dello stesso gene (es. gruppi sanguigni A/B/AB, etc.)" style="rounded=0;whiteSpace=wrap;html=1;" vertex="1" parent="1">
          <mxGeometry x="-10" y="480" width="140" height="85" as="geometry" />
        </mxCell>
        <mxCell id="w2two0Atbse1pp40csvL-22" value="Pleiotropia = unico gene che influenza gli aspetti del fenotipo" style="rounded=0;whiteSpace=wrap;html=1;" vertex="1" parent="1">
          <mxGeometry x="900" y="480" width="140" height="95" as="geometry" />
        </mxCell>
        <mxCell id="w2two0Atbse1pp40csvL-27" style="edgeStyle=orthogonalEdgeStyle;rounded=0;orthogonalLoop=1;jettySize=auto;html=1;exitX=1;exitY=0.5;exitDx=0;exitDy=0;" edge="1" parent="1" source="w2two0Atbse1pp40csvL-24" target="w2two0Atbse1pp40csvL-26">
          <mxGeometry relative="1" as="geometry" />
        </mxCell>
        <mxCell id="w2two0Atbse1pp40csvL-28" style="edgeStyle=orthogonalEdgeStyle;rounded=0;orthogonalLoop=1;jettySize=auto;html=1;exitX=0;exitY=0.5;exitDx=0;exitDy=0;" edge="1" parent="1" source="w2two0Atbse1pp40csvL-24" target="w2two0Atbse1pp40csvL-25">
          <mxGeometry relative="1" as="geometry" />
        </mxCell>
        <mxCell id="w2two0Atbse1pp40csvL-24" value="Altri caratteri" style="rounded=1;whiteSpace=wrap;html=1;" vertex="1" parent="1">
          <mxGeometry x="390" y="610" width="120" height="60" as="geometry" />
        </mxCell>
        <mxCell id="w2two0Atbse1pp40csvL-25" value="Caratteri ambientali" style="rounded=0;whiteSpace=wrap;html=1;" vertex="1" parent="1">
          <mxGeometry x="190" y="700" width="120" height="60" as="geometry" />
        </mxCell>
        <mxCell id="w2two0Atbse1pp40csvL-26" value="Geni associati = insieme di geni ereditati" style="rounded=0;whiteSpace=wrap;html=1;" vertex="1" parent="1">
          <mxGeometry x="580" y="700" width="120" height="60" as="geometry" />
        </mxCell>
      </root>
    </mxGraphModel>
  </diagram>
</mxfile>
